# xmcd
# 
# Track frame offsets:
#     150
#     28514
#     49028
#     70437
#     96771
#     126715
#     156502
#     182846
#     210701
#     223631
#     250115
# 
# Disc length: 3657
# 
# Revision: 1
# Processed by: cddbd v1.5.1PL2 Copyright (c) Steve Scherf et al.
# Submitted via: BonkEnc v1.0beta3
# 
DISCID=a80e470b
DTITLE=森山直太朗 - 新たなる香辛料を求めて
DYEAR=2004
DGENRE=JPop
TTITLE0=太陽 〜邂逅編〜
TTITLE1=紫陽花と雨の狂想曲
TTITLE2=愛し君へ
TTITLE3=旅立ちの朝 〜アルバム・ミックス〜
TTITLE4=青春のメモワール
TTITLE5=例えば友よ
TTITLE6=声
TTITLE7=生きとし生ける物へ 〜アルバム・エディット〜
TTITLE8=革命前夜、ブラックジャックに興じる勇者たち
TTITLE9=今が人生
TTITLE10=なんにもないへや
EXTD=YEAR: 2004
EXTT0=
EXTT1=
EXTT2=
EXTT3=
EXTT4=
EXTT5=
EXTT6=
EXTT7=
EXTT8=
EXTT9=
EXTT10=
PLAYORDER=
